# xmcd
#
# Track frame offsets:
#	150
#	20224
#	42822
#	56018
#	74862
#	88058
#	104253
#	119798
#	133456
#	149620
#	172116
#	193233
#	209667
#	231918
#	245846
#	259755
#	275022
#
# Disc length: 3892 seconds
#
# Revision: 0
# Processed by: cddbd v1.5.2PL0 Copyright (c) Steve Scherf et al.
# Submitted via: SynApp - FreeCDDB Version: 2.5
#
DISCID=2c0f3211
DTITLE=Tim Mc Graw - Lone Star
DYEAR=0000
DGENRE=Country
TTITLE0=Tim McGraw - Baby Im Amazed By You
TTITLE1=Tim Mcgraw - Back When
TTITLE2=Tim Mcgraw - Country Boys and Girls gettin down on the Farm
TTITLE3=Tim Mcgraw - Dont Take The Girl
TTITLE4=Tim Mcgraw - Down on the Farm
TTITLE5=Tim McGraw - For a Little While
TTITLE6=Tim McGraw - I Like It I Love It
TTITLE7=Tim McGraw - Indian Outlaw
TTITLE8=Tim McGraw - Just To See You Smile
TTITLE9=Tim McGraw - Live Like You Were Dying
TTITLE10=Tim McGraw - My Best Friend
TTITLE11=Tim McGraw - My next 30 Years
TTITLE12=Tim McGraw - Please remember me
TTITLE13=Tim McGraw - she never lets it go to her he
TTITLE14=Tim Mcgraw - Something Like That
TTITLE15=Tim McGraw - Where the Green grass grows
TTITLE16=Tim McGraw - It`s your Love
EXTD=
EXTT0=
EXTT1=
EXTT2=
EXTT3=
EXTT4=
EXTT5=
EXTT6=
EXTT7=
EXTT8=
EXTT9=
EXTT10=
EXTT11=
EXTT12=
EXTT13=
EXTT14=
EXTT15=
EXTT16=
PLAYORDER=
